<?xml version="1.0" encoding="UTF-8"?>
<svg id="Camada_2" data-name="Camada 2" xmlns="http://www.w3.org/2000/svg" viewBox="0 0 491.5 90">
  <defs>
    <style>
      .cls-1 {
        fill: #0b63e5;
      }

      .cls-2 {
        fill: #6da1ef;
      }

      .cls-3 {
        fill: #3c82ea;
      }

      .cls-4 {
        fill: #061c3d;
      }
    </style>
  </defs>
  <g id="Camada_1-2" data-name="Camada 1">
    <g>
      <g>
        <polygon class="cls-2" points="110 37.5 110 90 0 90 0 37.5 55 0 110 37.5"/>
        <polygon class="cls-3" points="86.41 48.52 86.41 90 23.59 90 23.59 48.52 55 26.08 86.41 48.52"/>
        <polygon class="cls-1" points="73.17 57.98 73.17 90 36.83 90 36.83 57.98 55 45 73.17 57.98"/>
      </g>
      <g>
        <path class="cls-4" d="M169.98,51.51c0-5.64.12-12.9.28-17.18h-.28c-1.51,7.74-3.93,18.45-6.57,28.95h-8.46c-2.07-10.19-4.44-20.92-5.84-28.94h-.32c.3,4.24.49,11.28.49,17.46v11.48h-9.41V27.21h15.21c1.78,7.3,3.86,17.88,4.67,23.21h.18c.93-5.8,3.33-15.37,5.43-23.21h14.78v36.07h-10.16v-11.77Z"/>
        <path class="cls-4" d="M190.18,27.21h10.49v14.64c2.36-3.29,7.68-9.89,11.24-14.64h12.52l-13.25,14.78,13.7,21.29h-12.39l-8.64-14.47-3.19,3.29v11.18h-10.49V27.21Z"/>
        <path class="cls-4" d="M231.49,26.72h22.75v3.31h-19.05v12.92h17.86v3.31h-17.86v17.02h-3.7V26.72Z"/>
        <path class="cls-4" d="M266.96,26.72v36.56h-3.74V26.72h3.74Z"/>
        <path class="cls-4" d="M284.03,51.39l-4.33,11.88h-3.75l13.24-36.56h4.53l13.81,36.56h-4.02l-4.44-11.88h-15.04ZM297.99,48.09c-3.81-10.3-5.82-15.47-6.58-18.07h-.05c-.89,2.92-3.15,9.26-6.22,18.07h12.85Z"/>
        <path class="cls-4" d="M316.27,26.72h12.54c10.14,0,17.09,7,17.09,17.94s-6.78,18.62-17.19,18.62h-12.44V26.72ZM320,59.99h8.3c9.18,0,13.64-6.51,13.64-15.2,0-7.67-4.03-14.78-13.63-14.78h-8.31v29.98Z"/>
        <path class="cls-4" d="M387.56,44.76c0,10.01-5.47,19.04-16.86,19.04-10.5,0-16.51-8.31-16.51-18.8s5.95-18.8,16.9-18.8c10.15,0,16.46,7.81,16.46,18.56ZM358.15,44.84c0,8.18,4.38,15.66,12.74,15.66,9.02,0,12.72-7.4,12.72-15.68s-4.19-15.33-12.66-15.33c-8.9,0-12.8,7.3-12.8,15.35Z"/>
        <path class="cls-4" d="M401.75,46.64v16.64h-3.75V26.72h13.64c7.34,0,11.24,3.96,11.24,9.69,0,4.69-2.75,7.66-6.57,8.58,3.41.85,5.96,3.2,5.96,9.47v1.48c0,2.54-.17,5.87.48,7.34h-3.7c-.67-1.57-.57-4.46-.57-7.73v-.87c0-5.64-1.64-8.04-8.44-8.04h-8.3ZM401.75,43.37h8.43c6.05,0,8.79-2.27,8.79-6.76,0-4.22-2.75-6.62-8.11-6.62h-9.11v13.37Z"/>
        <path class="cls-4" d="M456.21,45.71h-18.43v14.26h20.22l-.51,3.31h-23.4V26.72h23.04v3.31h-19.34v12.37h18.43v3.31Z"/>
        <path class="cls-4" d="M469.03,53.3c1.05,4.64,4.18,7.29,9.87,7.29,6.24,0,8.66-3.04,8.66-6.78s-1.82-6.25-9.54-8.14c-8.13-2-11.31-4.71-11.31-9.93s3.73-9.55,11.71-9.55,11.82,4.96,12.3,9.57h-3.83c-.75-3.62-3.08-6.37-8.63-6.37-4.9,0-7.61,2.25-7.61,6.06s2.25,5.23,8.84,6.84c10.35,2.55,12.01,6.64,12.01,11.17,0,5.61-4.12,10.25-12.8,10.25-9.16,0-12.78-5.19-13.5-10.42h3.83Z"/>
      </g>
    </g>
  </g>
</svg>